<?xml version="1.0" encoding="utf-8"?>
<!-- Generator: Adobe Illustrator 23.1.1, SVG Export Plug-In . SVG Version: 6.00 Build 0)  -->
<svg version="1.1" id="Layer_1" xmlns="http://www.w3.org/2000/svg" xmlns:xlink="http://www.w3.org/1999/xlink" x="0px" y="0px"
	 viewBox="0 0 500 500" style="enable-background:new 0 0 500 500;" xml:space="preserve">
<style type="text/css">
	.st0{enable-background:new    ;}
	.st1{fill:#BF355A;}
</style>
<g class="st0">
	<path class="st1" d="M78.5,261.5c0,0.2-0.1,0.4-0.2,0.4c-1.2,0-2.2,0-2.9-0.1l-4.1-0.1l-4.4,0.1c-0.7,0-1.7,0.1-2.9,0.1
		c-0.1,0-0.2-0.1-0.2-0.4c0-0.2,0.1-0.4,0.2-0.4c1.6,0,2.7-0.1,3.4-0.3c0.7-0.2,1.2-0.6,1.5-1.2c0.3-0.6,0.4-1.5,0.4-2.7v-14h-23v14
		c0,1.2,0.1,2.1,0.4,2.7c0.3,0.6,0.8,1,1.5,1.2c0.7,0.2,1.9,0.3,3.4,0.3c0.1,0,0.1,0.1,0.1,0.4c0,0.2,0,0.4-0.1,0.4
		c-1.2,0-2.2,0-2.9-0.1l-4.3-0.1l-4.1,0.1c-0.7,0-1.7,0.1-3,0.1c-0.1,0-0.1-0.1-0.1-0.4c0-0.2,0-0.4,0.1-0.4c1.5,0,2.6-0.1,3.4-0.3
		c0.7-0.2,1.2-0.6,1.5-1.2c0.3-0.6,0.4-1.5,0.4-2.7v-27.8c0-1.2-0.1-2.1-0.4-2.6c-0.3-0.6-0.8-0.9-1.5-1.2c-0.7-0.2-1.8-0.3-3.4-0.3
		c-0.1,0-0.1-0.1-0.1-0.4c0-0.2,0-0.4,0.1-0.4l3.1,0.1c1.7,0.1,3,0.1,4,0.1c1.2,0,2.6,0,4.4-0.1l2.9-0.1c0.1,0,0.1,0.1,0.1,0.4
		c0,0.2,0,0.4-0.1,0.4c-1.5,0-2.7,0.1-3.4,0.4c-0.7,0.2-1.2,0.7-1.5,1.2c-0.3,0.6-0.4,1.5-0.4,2.7v12.4h23v-12.4
		c0-1.2-0.1-2.1-0.4-2.7c-0.3-0.6-0.8-1-1.5-1.2c-0.7-0.2-1.9-0.4-3.4-0.4c-0.1,0-0.2-0.1-0.2-0.4c0-0.2,0.1-0.4,0.2-0.4l2.9,0.1
		c1.8,0.1,3.2,0.1,4.4,0.1c1.1,0,2.5,0,4.1-0.1l2.9-0.1c0.1,0,0.2,0.1,0.2,0.4c0,0.2-0.1,0.4-0.2,0.4c-1.5,0-2.6,0.1-3.4,0.3
		c-0.7,0.2-1.2,0.6-1.5,1.2c-0.3,0.6-0.4,1.4-0.4,2.6V257c0,1.2,0.1,2.1,0.4,2.7c0.3,0.6,0.8,1,1.5,1.2c0.7,0.2,1.8,0.3,3.4,0.3
		C78.5,261.1,78.5,261.2,78.5,261.5z"/>
	<path class="st1" d="M109.5,258.4c0.2,0,0.3,0.1,0.3,0.3s0,0.3-0.1,0.3l-7,3.4c-0.1,0-0.2,0.1-0.3,0.1c-0.4,0-0.7-0.5-1-1.4
		c-0.3-0.9-0.5-2.1-0.6-3.6c-1.5,1.5-3,2.7-4.5,3.7c-1.5,0.9-3.2,1.4-5,1.4c-2.4,0-4.5-0.9-6.1-2.7c-1.7-1.8-2.5-4.3-2.5-7.6
		c0-2.9,0.7-5.4,2-7.6c1.4-2.2,3.1-3.8,5.1-5c2.1-1.2,4.1-1.7,6.2-1.7c2.2,0,4.2,0.6,5.8,1.8c0.7-0.4,1.3-0.9,1.7-1.6
		c0-0.1,0.1-0.1,0.3,0c0.2,0.1,0.2,0.1,0.2,0.2v17.1c0,1.4,0.2,2.3,0.5,2.9c0.3,0.6,0.9,0.9,1.6,0.9c0.7,0,1.7-0.3,3.2-0.8H109.5z
		 M97.2,259.4c1.2-0.7,2.4-1.7,3.6-2.9v-12.2c0-1.5-0.6-2.7-1.9-3.7c-1.3-1-2.7-1.4-4.3-1.4c-2.4,0-4.3,1-5.7,3.2
		c-1.5,2.1-2.2,4.8-2.2,8.2c0,3,0.6,5.4,1.8,7.3c1.2,1.8,2.8,2.8,4.9,2.8C94.7,260.5,96,260.1,97.2,259.4z"/>
	<path class="st1" d="M154.7,261.5c0,0.2-0.1,0.4-0.2,0.4c-0.9,0-1.7,0-2.2-0.1l-3.2-0.1l-3.2,0.1c-0.6,0-1.3,0.1-2.2,0.1
		c-0.1,0-0.2-0.1-0.2-0.4c0-0.2,0.1-0.4,0.2-0.4c1.1,0,1.9-0.1,2.4-0.3c0.5-0.2,0.9-0.6,1.1-1.2c0.2-0.6,0.3-1.4,0.3-2.6v-9.5
		c0-2.4-0.4-4.1-1.3-5.2c-0.8-1.1-2.1-1.7-3.9-1.7c-1.2,0-2.4,0.3-3.6,1c-1.2,0.7-2.4,1.6-3.4,2.8c0,0.2,0.1,0.5,0.1,1V257
		c0,1.2,0.1,2.1,0.3,2.6c0.2,0.6,0.6,1,1.1,1.2c0.5,0.2,1.3,0.3,2.4,0.3c0.1,0,0.2,0.1,0.2,0.4c0,0.2-0.1,0.4-0.2,0.4
		c-0.9,0-1.7,0-2.2-0.1l-3.2-0.1l-3.3,0.1c-0.5,0-1.2,0.1-2.2,0.1c-0.1,0-0.2-0.1-0.2-0.4c0-0.2,0.1-0.4,0.2-0.4
		c1.1,0,1.9-0.1,2.4-0.3c0.5-0.2,0.9-0.6,1-1.2c0.2-0.6,0.3-1.4,0.3-2.6v-9.5c0-2.4-0.4-4.1-1.3-5.2c-0.8-1.1-2.1-1.7-3.8-1.7
		c-1.2,0-2.4,0.3-3.6,1c-1.2,0.6-2.3,1.5-3.3,2.7V257c0,1.2,0.1,2.1,0.3,2.6c0.2,0.6,0.5,1,1.1,1.2c0.5,0.2,1.3,0.3,2.4,0.3
		c0.1,0,0.2,0.1,0.2,0.4c0,0.2-0.1,0.4-0.2,0.4c-0.9,0-1.6,0-2.2-0.1l-3.2-0.1l-3.3,0.1c-0.5,0-1.2,0.1-2.2,0.1
		c-0.1,0-0.2-0.1-0.2-0.4c0-0.2,0.1-0.4,0.2-0.4c1.1,0,1.9-0.1,2.4-0.3c0.5-0.2,0.9-0.6,1-1.2c0.2-0.6,0.3-1.4,0.3-2.6v-11.9
		c0-1.4-0.2-2.3-0.5-2.9c-0.3-0.6-0.9-0.9-1.6-0.9c-0.6,0-1.7,0.3-3.2,0.9h-0.1c-0.2,0-0.3-0.1-0.3-0.3c-0.1-0.2,0-0.3,0.1-0.4
		l7-3.3c0.1,0,0.2-0.1,0.4-0.1c0.4,0,0.7,0.5,1.1,1.4c0.4,0.9,0.6,2.1,0.6,3.5v0.1c1.4-1.8,2.9-3,4.3-3.8s2.9-1.2,4.5-1.2
		c1.8,0,3.3,0.4,4.4,1.3c1.1,0.9,1.8,2.2,2.1,4c1.5-1.8,3-3.1,4.4-4c1.5-0.9,3-1.3,4.6-1.3c2.1,0,3.8,0.6,4.9,1.8
		c1.1,1.2,1.7,3,1.7,5.4V257c0,1.2,0.1,2.1,0.3,2.6c0.2,0.6,0.5,1,1.1,1.2c0.5,0.2,1.3,0.3,2.4,0.3
		C154.6,261.1,154.7,261.2,154.7,261.5z"/>
	<path class="st1" d="M184.7,258.4c0.2,0,0.3,0.1,0.3,0.3s0,0.3-0.1,0.3l-7,3.4c-0.1,0-0.2,0.1-0.3,0.1c-0.4,0-0.7-0.5-1-1.4
		c-0.3-0.9-0.5-2.1-0.6-3.6c-1.5,1.5-3,2.7-4.5,3.7c-1.5,0.9-3.2,1.4-5,1.4c-2.4,0-4.5-0.9-6.1-2.7c-1.7-1.8-2.5-4.3-2.5-7.6
		c0-2.9,0.7-5.4,2-7.6c1.4-2.2,3.1-3.8,5.1-5c2.1-1.2,4.1-1.7,6.2-1.7c2.2,0,4.2,0.6,5.8,1.8c0.7-0.4,1.3-0.9,1.7-1.6
		c0-0.1,0.1-0.1,0.3,0c0.2,0.1,0.2,0.1,0.2,0.2v17.1c0,1.4,0.2,2.3,0.5,2.9c0.3,0.6,0.9,0.9,1.6,0.9c0.7,0,1.7-0.3,3.2-0.8H184.7z
		 M172.4,259.4c1.2-0.7,2.4-1.7,3.6-2.9v-12.2c0-1.5-0.6-2.7-1.9-3.7c-1.3-1-2.7-1.4-4.3-1.4c-2.4,0-4.3,1-5.7,3.2
		c-1.5,2.1-2.2,4.8-2.2,8.2c0,3,0.6,5.4,1.8,7.3c1.2,1.8,2.8,2.8,4.9,2.8C169.9,260.5,171.2,260.1,172.4,259.4z"/>
	<path class="st1" d="M213,261.5c0,0.2-0.1,0.4-0.3,0.4c-0.6,0-1.5,0-2.8-0.1c-1.3-0.1-2.2-0.1-2.9-0.1c-0.6,0-1.4,0-2.5,0.1
		c-1.1,0.1-1.9,0.1-2.4,0.1c-0.2,0-0.2-0.1-0.2-0.4c0-0.2,0.1-0.4,0.2-0.4c0.8,0,1.4-0.2,1.8-0.5c0.4-0.3,0.6-0.8,0.6-1.4
		c0-0.7-0.2-1.5-0.7-2.4l-6.4-13.6l-4.7,11.2c-0.7,1.7-1.1,3-1.1,4.1c0,1.7,0.9,2.6,2.8,2.6c0.2,0,0.3,0.1,0.3,0.4
		c0,0.2-0.1,0.4-0.3,0.4c-0.4,0-1,0-1.7-0.1c-0.9-0.1-1.7-0.1-2.4-0.1c-0.8,0-1.6,0-2.4,0.1c-0.7,0.1-1.4,0.1-1.9,0.1
		c-0.2,0-0.3-0.1-0.3-0.4c0-0.2,0.1-0.4,0.3-0.4c0.7,0,1.5-0.5,2.3-1.5c0.8-1,1.8-2.9,3.1-5.7l6.9-16.1c0.1-0.2,0.2-0.2,0.4-0.2
		s0.3,0.1,0.3,0.2l7.4,15.8c1.1,2.3,1.9,4,2.5,4.9c0.6,1,1.1,1.6,1.7,2c0.6,0.4,1.3,0.6,2.2,0.6C212.9,261.1,213,261.2,213,261.5z"
		/>
	<path class="st1" d="M237.8,261.5c0,0.2,0,0.4-0.1,0.4c-0.9,0-1.6,0-2.2-0.1l-3.1-0.1l-3.2,0.1c-0.6,0-1.3,0.1-2.3,0.1
		c-0.1,0-0.1-0.1-0.1-0.4c0-0.2,0-0.4,0.1-0.4c1.1,0,1.9-0.1,2.4-0.3c0.5-0.2,0.8-0.6,1-1.1c0.2-0.6,0.3-1.5,0.3-2.7v-6.5
		c-1.5,0.1-2.8,0.6-3.9,1.5c-1.1,0.9-2.3,2.6-3.6,5c-1.2,2.2-2,3.5-2.4,4.1c-0.4,0.5-0.8,0.8-1.2,0.8h-5.2c-0.1,0-0.1-0.1-0.1-0.4
		c0-0.2,0-0.4,0.1-0.4c1.2,0,2.2-0.4,2.9-1.2c0.7-0.8,1.3-1.6,1.8-2.5c0.5-0.9,0.8-1.4,0.9-1.7c0.8-1.4,1.7-2.5,2.8-3.5
		c1.1-0.9,2.3-1.5,3.6-1.8c-4.8-0.4-7.3-2.3-7.3-5.8c0-1.9,0.7-3.4,2.1-4.6c1.4-1.1,3.3-1.7,5.7-1.7c0.4,0,1.3,0,2.6,0.1
		c1.1,0.1,2.1,0.2,2.9,0.2l3-0.1c0.5,0,1.2-0.1,2.2-0.1c0.1,0,0.1,0.1,0.1,0.4s0,0.4-0.1,0.4c-1,0-1.8,0.1-2.3,0.3
		c-0.5,0.2-0.9,0.6-1.1,1.2c-0.2,0.6-0.3,1.4-0.3,2.6V257c0,1.2,0.1,2,0.3,2.6c0.2,0.6,0.6,1,1.1,1.2c0.5,0.2,1.3,0.3,2.3,0.3
		C237.8,261.1,237.8,261.2,237.8,261.5z M224.2,248c1,1.2,2.3,1.8,4.1,1.8c0.8,0,1.5-0.1,2.3-0.2v-5.9c0-1.3-0.1-2.2-0.3-2.8
		c-0.2-0.6-0.6-1-1.1-1.3c-0.5-0.2-1.3-0.4-2.3-0.4c-1.4,0-2.4,0.4-3.1,1.1c-0.7,0.7-1.1,1.7-1.1,3.1
		C222.8,245.2,223.2,246.8,224.2,248z"/>
	<path class="st1" d="M284.1,250.6c0,2.2-0.5,4.2-1.5,6c-1,1.8-2.5,3.1-4.3,4.1c-1.8,1-3.9,1.4-6.3,1.4c-1.1,0-2.3-0.1-3.8-0.2
		c-0.6,0-1.3-0.1-2.2-0.1s-1.7-0.1-2.7-0.1l-4.1,0.1c-0.7,0-1.7,0.1-3.1,0.1c-0.1,0-0.1-0.1-0.1-0.4c0-0.2,0-0.4,0.1-0.4
		c1.5,0,2.6-0.1,3.4-0.3c0.7-0.2,1.2-0.6,1.5-1.2c0.3-0.6,0.4-1.4,0.4-2.6v-27.8c0-1.2-0.1-2.1-0.4-2.6c-0.3-0.6-0.7-0.9-1.4-1.2
		c-0.7-0.2-1.8-0.3-3.3-0.3c-0.1,0-0.2-0.1-0.2-0.4c0-0.2,0.1-0.4,0.2-0.4H280c0.2,0,0.4,0.1,0.5,0.2s0.1,0.3,0.2,0.6l0.8,7.7
		c0,0.1-0.1,0.2-0.3,0.2s-0.3-0.1-0.4-0.2c-0.4-2.2-1.2-4-2.5-5.3c-1.3-1.3-2.8-1.9-4.6-1.9h-3.4c-1.4,0-2.4,0.1-3.1,0.3
		c-0.7,0.2-1.1,0.6-1.4,1.1s-0.4,1.4-0.4,2.5V241c1.9-0.2,3.5-0.3,4.9-0.3C279.5,240.7,284.1,244,284.1,250.6z M277.8,258.8
		c1.4-1.5,2.2-3.7,2.2-6.7c0-3.7-1-6.3-2.9-7.9c-1.9-1.6-4.7-2.4-8.3-2.4c-1.2,0-2.3,0.1-3.4,0.2V257c0,1.4,0.4,2.4,1.1,3.1
		c0.7,0.6,2.2,1,4.4,1C274,261,276.3,260.3,277.8,258.8z"/>
	<path class="st1" d="M310.8,239.2c1.4,0.9,2.5,2.2,3.4,3.8c0.8,1.7,1.3,3.6,1.3,5.9c0,3-0.7,5.5-2,7.6c-1.4,2.1-3,3.6-5,4.6
		c-2,1-3.9,1.5-5.8,1.5c-1.2,0-2.4-0.1-3.3-0.4c-1-0.2-2-0.6-3-1.2v12.4c0,1.2,0.2,2.1,0.5,2.6c0.3,0.6,0.9,0.9,1.7,1.2
		c0.8,0.2,2.1,0.3,3.8,0.3c0.1,0,0.1,0.1,0.1,0.4c0,0.2,0,0.4-0.1,0.4c-1.4,0-2.4,0-3.2-0.1l-4.4-0.1l-3.3,0.1
		c-0.6,0-1.3,0.1-2.2,0.1c-0.1,0-0.2-0.1-0.2-0.4c0-0.2,0.1-0.4,0.2-0.4c1.1,0,1.9-0.1,2.4-0.3c0.5-0.2,0.9-0.6,1.1-1.2
		c0.2-0.6,0.3-1.4,0.3-2.6v-28.2c0-1.4-0.2-2.5-0.5-3.1c-0.3-0.6-0.9-0.9-1.7-0.9c-0.9,0-1.9,0.3-3.2,0.8l-0.1,0.1
		c-0.2,0-0.3-0.1-0.3-0.3c-0.1-0.2,0-0.3,0.1-0.4l6.7-3.2c0.1,0,0.2-0.1,0.4-0.1c0.6,0,1,0.4,1.4,1.3s0.6,2,0.6,3.6
		c3.4-3.4,6.8-5.2,10.1-5.2C307.9,237.9,309.4,238.3,310.8,239.2z M309.6,258.6c1.4-1.9,2-4.5,2-7.8c0-3.4-0.7-6-2.2-7.8
		c-1.5-1.9-3.4-2.8-5.6-2.8c-1.4,0-2.7,0.3-3.9,1c-1.2,0.7-2.4,1.6-3.7,2.9v13.5c1.1,1.2,2.3,2.2,3.5,2.8c1.3,0.6,2.8,1,4.6,1
		C306.5,261.4,308.2,260.4,309.6,258.6z"/>
	<path class="st1" d="M347,258.4c0.2,0,0.3,0.1,0.3,0.3c0.1,0.2,0,0.3-0.1,0.4l-7,3.3l-0.2,0.1c-0.4,0-0.8-0.5-1.1-1.4
		c-0.4-0.9-0.5-2.1-0.5-3.6v-0.2c-1.6,1.8-3.1,3.1-4.7,3.9c-1.6,0.8-3.2,1.2-4.9,1.2c-2,0-3.6-0.6-4.7-1.9c-1.1-1.3-1.7-3.1-1.7-5.5
		v-9.2c0-1.6-0.1-2.7-0.4-3.4c-0.3-0.7-0.7-1-1.4-1c-0.6,0-1.2,0.2-2,0.6h-0.1c-0.2,0-0.3-0.1-0.4-0.3c-0.1-0.2,0-0.3,0.1-0.4l6.7-3
		l0.2-0.1c0.1,0,0.2,0.1,0.4,0.2c0.1,0.1,0.2,0.2,0.2,0.3V253c0,4.6,1.7,7,5,7c1.3,0,2.6-0.3,3.9-1c1.3-0.7,2.5-1.6,3.6-2.7v-10.4
		c0-1.6-0.1-2.7-0.4-3.4c-0.3-0.7-0.7-1-1.4-1c-0.6,0-1.2,0.2-2,0.6h-0.1c-0.2,0-0.3-0.1-0.3-0.3c-0.1-0.2,0-0.3,0.1-0.4l6.7-3
		l0.2-0.1c0.1,0,0.2,0.1,0.4,0.2c0.1,0.1,0.2,0.2,0.2,0.3v16.8c0,1.4,0.2,2.3,0.5,2.9c0.3,0.6,0.9,0.9,1.6,0.9
		c0.7,0,1.7-0.3,3.2-0.8H347z"/>
	<path class="st1" d="M375.7,261.2c0,0.1,0.1,0.3,0.1,0.6l-0.1,1.3c-0.2,1.5-0.2,3.7-0.2,6.5c0,0.2-0.1,0.3-0.4,0.3
		c-0.2,0-0.4-0.1-0.4-0.3c0-2.9-0.6-5-1.7-6.1c-1.1-1.2-2.7-1.7-4.7-1.7c-0.3,0-0.4-0.3-0.5-0.9c-0.1-0.6-0.1-1.8-0.1-3.7v-0.1
		c-1.6,1.8-3.1,3.1-4.7,3.9c-1.6,0.8-3.2,1.2-4.9,1.2c-2,0-3.6-0.6-4.7-1.9c-1.1-1.3-1.7-3.1-1.7-5.5v-9.2c0-1.6-0.1-2.7-0.4-3.4
		c-0.3-0.7-0.7-1-1.4-1c-0.6,0-1.2,0.2-2,0.6H348c-0.2,0-0.3-0.1-0.4-0.3c-0.1-0.2,0-0.3,0.1-0.4l6.7-3l0.2-0.1
		c0.1,0,0.2,0.1,0.4,0.2c0.1,0.1,0.2,0.2,0.2,0.3V253c0,4.6,1.7,7,5,7c1.3,0,2.6-0.3,3.9-1c1.3-0.7,2.5-1.6,3.6-2.7v-10.4
		c0-1.6-0.1-2.7-0.4-3.4c-0.3-0.7-0.7-1-1.4-1c-0.6,0-1.2,0.2-2,0.6h-0.1c-0.2,0-0.3-0.1-0.3-0.3c-0.1-0.2,0-0.3,0.1-0.4l6.7-3
		l0.2-0.1c0.1,0,0.2,0.1,0.4,0.2c0.1,0.1,0.2,0.2,0.2,0.3v16.6c0,2.1,0.3,3.6,0.9,4.5c0.6,0.9,1.6,1.4,3.1,1.4
		C375.5,261.1,375.7,261.2,375.7,261.2z"/>
	<path class="st1" d="M398.5,254.7c0,2.5-0.8,4.4-2.5,5.8c-1.7,1.4-4.1,2.1-7.1,2.1c-2.6,0-4.5-0.5-5.8-1.5c-1.3-1-2-2.4-2-4.3
		v-11.1c0-1.6-0.1-2.7-0.4-3.4c-0.3-0.7-0.7-1-1.4-1c-0.4,0-1.1,0.2-2,0.6h-0.1c-0.2,0-0.3-0.1-0.4-0.3c-0.1-0.2,0-0.3,0.1-0.4
		l6.7-3l0.2-0.1c0.1,0,0.2,0.1,0.4,0.2c0.1,0.1,0.2,0.2,0.2,0.3v10.5c1.8-0.6,3.7-0.9,5.9-0.9C395.8,248.2,398.5,250.4,398.5,254.7z
		 M394.7,256c0-2-0.5-3.7-1.6-4.9s-2.7-1.8-5-1.8c-1.2,0-2.5,0.2-3.8,0.7v5.5c0,2,0.4,3.6,1.3,4.7c0.9,1.1,2.2,1.7,3.9,1.7
		C393,261.8,394.7,259.9,394.7,256z"/>
	<path class="st1" d="M427.3,261.5c0,0.2-0.1,0.4-0.2,0.4h-6.6c-0.2,0-0.3,0-0.4-0.1c-0.1-0.1-0.2-0.3-0.5-0.7c-0.6-1-1.7-2.7-3.3-5
		c-1.4-2-2.5-3.3-3-4s-1.2-1.2-1.9-1.4c-0.7-0.2-1.6-0.3-2.9-0.3v6.6c0,1.2,0.1,2.1,0.3,2.7c0.2,0.6,0.5,1,1,1.2s1.3,0.3,2.4,0.3
		c0.1,0,0.2,0.1,0.2,0.4c0,0.2-0.1,0.4-0.2,0.4c-1,0-1.8,0-2.3-0.1l-3.1-0.1l-3.2,0.1c-0.6,0-1.4,0.1-2.4,0.1
		c-0.1,0-0.2-0.1-0.2-0.4c0-0.2,0.1-0.4,0.2-0.4c1.1,0,2-0.1,2.5-0.3s0.9-0.6,1.1-1.2c0.2-0.6,0.3-1.5,0.3-2.7v-31
		c0-1.4-0.1-2.5-0.4-3.1c-0.3-0.6-0.8-1-1.5-1c-0.6,0-1.5,0.3-2.8,0.8h-0.1c-0.1,0-0.2-0.1-0.3-0.3c-0.1-0.2,0-0.3,0.1-0.4l7.5-3.7
		l0.3-0.1c0.1,0,0.2,0.1,0.4,0.2c0.1,0.1,0.2,0.2,0.2,0.3v30.5c1.6-0.1,2.8-0.2,3.7-0.2c1,0,2-1,3-2.9c1.2-2.3,2-4,2.6-4.9
		c0.6-1,1.2-1.7,1.9-2.3c0.7-0.6,1.6-0.9,2.6-0.9c0.8,0,1.5,0.2,2,0.6c0.5,0.4,0.7,0.9,0.7,1.5c0,0.6-0.2,1.2-0.6,1.6
		c-0.4,0.4-1,0.7-1.7,0.7c-0.4,0-0.9-0.1-1.4-0.4c-0.5-0.3-0.9-0.4-1.2-0.4c-0.8,0-2.1,1.6-4,4.9c-0.7,1.3-1.3,2.2-1.9,2.8
		c0.8,0.2,1.4,0.5,2,1.1c0.6,0.5,1.4,1.6,2.5,3.1l1.1,1.4l1.5,2c1.1,1.6,2,2.6,2.8,3.2c0.7,0.6,1.7,0.9,3.1,1
		C427.2,261.1,427.3,261.2,427.3,261.5z"/>
	<path class="st1" d="M455.4,258.4c0.2,0,0.3,0.1,0.3,0.3c0.1,0.2,0,0.3-0.1,0.3l-7,3.4c-0.1,0-0.2,0.1-0.3,0.1
		c-0.4,0-0.7-0.5-1.1-1.4s-0.5-2.1-0.6-3.6c-1.5,1.5-3,2.7-4.5,3.7c-1.5,0.9-3.2,1.4-5,1.4c-2.4,0-4.5-0.9-6.1-2.7
		c-1.7-1.8-2.5-4.3-2.5-7.6c0-2.9,0.7-5.4,2-7.6c1.4-2.2,3.1-3.8,5.1-5c2.1-1.2,4.1-1.7,6.2-1.7c2.2,0,4.2,0.6,5.8,1.8
		c0.7-0.4,1.3-0.9,1.7-1.6c0-0.1,0.1-0.1,0.3,0c0.2,0.1,0.2,0.1,0.2,0.2v17.1c0,1.4,0.2,2.3,0.5,2.9s0.9,0.9,1.6,0.9
		c0.7,0,1.7-0.3,3.2-0.8H455.4z M443.1,259.4c1.2-0.7,2.4-1.7,3.6-2.9v-12.2c0-1.5-0.6-2.7-1.9-3.7c-1.3-1-2.7-1.4-4.3-1.4
		c-2.4,0-4.3,1-5.7,3.2c-1.5,2.1-2.2,4.8-2.2,8.2c0,3,0.6,5.4,1.8,7.3c1.2,1.8,2.8,2.8,4.9,2.8C440.6,260.5,441.8,260.1,443.1,259.4
		z"/>
</g>
</svg>
